# xmcd
#
# Track frame offsets: 
#        150
#        13000
#        26230
#        39940
#        51357
#        62362
#        73720
#        86092
#        99570
#        111065
#        124880
#
# Disc length: 1831 seconds
#
# Revision: 1
# Processed by: cddbd v1.5.2PL0 Copyright (c) Steve Scherf et al.
# Submitted via: ExactAudioCopy v1.0b3
#
DISCID=9107250b
DTITLE=Jack Robertson - Honky Tonk Daze
DYEAR=1992
DGENRE=Country
TTITLE0=Come And Get Us Mama(We`re In Trouble With The Law)
TTITLE1=Kissed The Bus
TTITLE2=Living With Your Memory
TTITLE3=Bent Over Backwards
TTITLE4=Honky Tonk Daze
TTITLE5=Bootie Bumpin`Dancin`fool
TTITLE6=Where Do You Think You`re Coming From
TTITLE7=Whats My World Coming To
TTITLE8=Middle Of A Drought
TTITLE9=The Old Country Barber
TTITLE10=Blue Neon Blues
EXTD=
EXTT0=
EXTT1=
EXTT2=
EXTT3=
EXTT4=
EXTT5=
EXTT6=
EXTT7=
EXTT8=
EXTT9=
EXTT10=
PLAYORDER=
